<?xml version="1.0" encoding="UTF-8"?>
<svg id="Layer_1" data-name="Layer 1" xmlns="http://www.w3.org/2000/svg" viewBox="0 0 755.29 663.53">
  <defs>
    <style>
      .cls-1 {
        fill: #262626;
      }

      .cls-1, .cls-2 {
        stroke-width: 0px;
      }

      .cls-2 {
        fill: #00b7ff;
      }
    </style>
  </defs>
  <polygon class="cls-2" points="374.33 273.71 250.94 487.42 497.72 487.42 374.33 273.71"/>
  <path class="cls-1" d="M494.36,625.38l-27.25-59.65h-185.56l-27.25,59.65h-119.29L374.33,95.21h6.63l239.32,530.18h-125.92ZM419.25,459.7l-44.92-100.15-44.92,100.15h89.83Z"/>
  <path class="cls-2" d="M343.55,642.66H18.65l158.5-274.52c-7.01,20.96-10.8,43.39-10.8,66.7,0,104.91,76.77,191.89,177.2,207.82Z"/>
  <path class="cls-2" d="M539.91,301.9c-38.59-47.3-97.33-77.5-163.13-77.5s-119.16,27.5-157.71,71.13L377.65,20.86l162.26,281.04Z"/>
  <path class="cls-2" d="M736.65,642.66h-326.64c100.43-15.93,177.2-102.91,177.2-207.82,0-26.25-4.81-51.37-13.59-74.55l163.03,282.37Z"/>
</svg>